<?xml version="1.0" encoding="utf-8"?>
<!-- Generator: Adobe Illustrator 23.0.1, SVG Export Plug-In . SVG Version: 6.00 Build 0)  -->
<svg version="1.1" id="Layer_1" xmlns="http://www.w3.org/2000/svg" xmlns:xlink="http://www.w3.org/1999/xlink" x="0px" y="0px"
	 viewBox="0 0 100 100" style="enable-background:new 0 0 100 100;" xml:space="preserve">
<style type="text/css">
	.st0{fill-rule:evenodd;clip-rule:evenodd;}
</style>
<path class="st0" d="M50,100C22.4,100,0,77.6,0,50C0,22.4,22.4,0,50,0c27.6,0,50,22.4,50,50C100,77.6,77.6,100,50,100z M50,14.3
	c-19.7,0-35.7,16-35.7,35.7c0,19.7,16,35.7,35.7,35.7c19.7,0,35.7-16,35.7-35.7C85.7,30.3,69.7,14.3,50,14.3z M61.1,58.8
	c-0.3,0.5-0.7,0.9-1,1.3c-0.4,0.4-0.8,0.7-1.3,1c-1.5,1.2-3.2,2.1-5,2.6c-9.3,3.8-24,6.5-24,6.5s2.7-14.7,6.5-24
	c0.5-1.8,1.4-3.5,2.6-5c0.3-0.5,0.7-0.9,1-1.3c0.4-0.4,0.8-0.7,1.3-1c1.5-1.2,3.2-2.1,5-2.6c9.3-3.8,24-6.5,24-6.5s-2.7,14.7-6.5,24
	C63.2,55.6,62.4,57.3,61.1,58.8z M52.5,47.5c-1.4-1.4-3.7-1.4-5.1,0s-1.4,3.7,0,5.1c1.4,1.4,3.7,1.4,5.1,0
	C53.9,51.1,53.9,48.9,52.5,47.5z"/>
</svg>
